<?xml version="1.0" encoding="utf-8"?>
<!-- Generator: Adobe Illustrator 16.0.0, SVG Export Plug-In . SVG Version: 6.00 Build 0)  -->
<!DOCTYPE svg PUBLIC "-//W3C//DTD SVG 1.1//EN" "http://www.w3.org/Graphics/SVG/1.1/DTD/svg11.dtd">
<svg version="1.1" id="레이어_1" xmlns="http://www.w3.org/2000/svg" xmlns:xlink="http://www.w3.org/1999/xlink" x="0px"
	 y="0px" width="400px" height="400px" viewBox="0 0 400 400" enable-background="new 0 0 400 400" xml:space="preserve">
<path fill="#999999" d="M20,11.471c0,0.196-0.156,0.431-0.364,0.469l-2.41,0.365c-0.143,0.417-0.299,0.808-0.507,1.186
	c0.442,0.638,0.91,1.21,1.394,1.797c0.077,0.091,0.13,0.208,0.13,0.325s-0.039,0.209-0.118,0.3
	c-0.312,0.416-2.069,2.331-2.512,2.331c-0.118,0-0.234-0.052-0.338-0.117l-1.798-1.406c-0.378,0.194-0.782,0.365-1.186,0.494
	c-0.091,0.794-0.169,1.642-0.377,2.422C11.861,19.845,11.68,20,11.445,20H8.554c-0.234,0-0.442-0.169-0.468-0.39l-0.365-2.396
	c-0.404-0.129-0.794-0.286-1.172-0.481l-1.836,1.394c-0.091,0.077-0.208,0.117-0.326,0.117S4.153,18.191,4.062,18.1
	c-0.69-0.626-1.601-1.433-2.148-2.188c-0.064-0.091-0.091-0.195-0.091-0.3c0-0.117,0.039-0.209,0.104-0.3
	c0.443-0.599,0.925-1.172,1.367-1.783c-0.221-0.417-0.403-0.847-0.534-1.29l-2.383-0.351C0.156,11.849,0,11.641,0,11.42V8.529
	c0-0.195,0.156-0.43,0.352-0.469l2.422-0.365c0.13-0.417,0.299-0.807,0.507-1.198C2.838,5.873,2.37,5.287,1.888,4.701
	C1.81,4.61,1.758,4.505,1.758,4.388s0.052-0.208,0.117-0.3c0.312-0.429,2.07-2.331,2.513-2.331c0.117,0,0.234,0.052,0.339,0.13
	l1.797,1.393c0.377-0.195,0.781-0.364,1.185-0.495c0.091-0.794,0.169-1.641,0.377-2.422C8.138,0.156,8.32,0,8.554,0h2.891
	c0.234,0,0.442,0.169,0.469,0.391l0.365,2.396c0.403,0.13,0.793,0.286,1.171,0.482l1.85-1.394c0.078-0.078,0.194-0.117,0.313-0.117
	c0.116,0,0.234,0.052,0.325,0.13c0.689,0.638,1.602,1.445,2.148,2.214c0.065,0.078,0.092,0.182,0.092,0.286
	c0,0.117-0.04,0.208-0.105,0.299c-0.443,0.599-0.924,1.172-1.367,1.784c0.222,0.417,0.404,0.846,0.534,1.276l2.383,0.365
	C19.844,8.151,20,8.36,20,8.581V11.471z M10,6.667c-1.836,0-3.333,1.497-3.333,3.333c0,1.835,1.497,3.333,3.333,3.333
	c1.836,0,3.333-1.497,3.333-3.333C13.333,8.164,11.836,6.667,10,6.667z"/>
<path fill="#2377C5" d="M50,11.471c0,0.196-0.156,0.431-0.364,0.469l-2.41,0.365c-0.143,0.417-0.299,0.808-0.507,1.186
	c0.442,0.638,0.91,1.21,1.394,1.797c0.077,0.091,0.13,0.208,0.13,0.325s-0.039,0.209-0.118,0.3
	c-0.312,0.416-2.069,2.331-2.512,2.331c-0.118,0-0.234-0.052-0.338-0.117l-1.798-1.406c-0.378,0.194-0.782,0.365-1.186,0.494
	c-0.091,0.794-0.169,1.642-0.377,2.422C41.861,19.845,41.68,20,41.445,20h-2.891c-0.234,0-0.442-0.169-0.468-0.39l-0.365-2.396
	c-0.404-0.129-0.794-0.286-1.172-0.481l-1.836,1.394c-0.091,0.077-0.208,0.117-0.326,0.117s-0.234-0.052-0.326-0.144
	c-0.69-0.626-1.601-1.433-2.148-2.188c-0.064-0.091-0.091-0.195-0.091-0.3c0-0.117,0.039-0.209,0.104-0.3
	c0.443-0.599,0.925-1.172,1.367-1.783c-0.221-0.417-0.403-0.847-0.534-1.29l-2.383-0.351C30.156,11.849,30,11.641,30,11.42V8.529
	c0-0.195,0.156-0.43,0.352-0.469l2.422-0.365c0.13-0.417,0.299-0.807,0.507-1.198c-0.442-0.625-0.911-1.211-1.393-1.797
	c-0.078-0.091-0.13-0.195-0.13-0.313s0.052-0.208,0.117-0.3c0.312-0.429,2.07-2.331,2.513-2.331c0.117,0,0.234,0.052,0.339,0.13
	l1.797,1.393c0.377-0.195,0.781-0.364,1.185-0.495c0.091-0.794,0.169-1.641,0.377-2.422C38.138,0.156,38.32,0,38.554,0h2.891
	c0.234,0,0.442,0.169,0.469,0.391l0.365,2.396c0.403,0.13,0.793,0.286,1.171,0.482l1.85-1.394c0.078-0.078,0.194-0.117,0.313-0.117
	c0.116,0,0.234,0.052,0.325,0.13c0.689,0.638,1.602,1.445,2.148,2.214c0.065,0.078,0.092,0.182,0.092,0.286
	c0,0.117-0.04,0.208-0.105,0.299c-0.443,0.599-0.924,1.172-1.367,1.784c0.222,0.417,0.404,0.846,0.534,1.276l2.383,0.365
	C49.844,8.151,50,8.36,50,8.581V11.471z M40,6.667c-1.836,0-3.333,1.497-3.333,3.333c0,1.835,1.497,3.333,3.333,3.333
	c1.836,0,3.333-1.497,3.333-3.333C43.333,8.164,41.836,6.667,40,6.667z"/>
</svg>
