<?xml version="1.0" encoding="utf-8"?>
<!-- Generator: Adobe Illustrator 16.0.0, SVG Export Plug-In . SVG Version: 6.00 Build 0)  -->
<!DOCTYPE svg PUBLIC "-//W3C//DTD SVG 1.1//EN" "http://www.w3.org/Graphics/SVG/1.1/DTD/svg11.dtd">
<svg version="1.1" id="레이어_1" xmlns="http://www.w3.org/2000/svg" xmlns:xlink="http://www.w3.org/1999/xlink" x="0px"
	 y="0px" width="300px" height="300px" viewBox="0 0 300 300" enable-background="new 0 0 300 300" xml:space="preserve">
<g>
	<path fill="#FFFFFF" d="M10,19c-4.962,0-9-4.038-9-9s4.038-9,9-9s9,4.038,9,9S14.962,19,10,19z"/>
	<path fill="#666666" d="M10,2c4.411,0,8,3.589,8,8s-3.589,8-8,8s-8-3.589-8-8S5.589,2,10,2 M10,0C4.477,0,0,4.477,0,10
		s4.477,10,10,10s10-4.477,10-10S15.523,0,10,0L10,0z"/>
</g>
<g>
	<path fill="#FFFFFF" d="M60,19c-4.962,0-9-4.038-9-9s4.038-9,9-9s9,4.038,9,9S64.962,19,60,19z"/>
	<path fill="#2377C5" d="M60,2c4.411,0,8,3.589,8,8s-3.589,8-8,8s-8-3.589-8-8S55.589,2,60,2 M60,0c-5.522,0-10,4.477-10,10
		s4.478,10,10,10s10-4.477,10-10S65.522,0,60,0L60,0z"/>
</g>
<g>
	<g>
		<path fill="#FFFFFF" d="M110,18.5c-4.687,0-8.5-3.813-8.5-8.5s3.813-8.5,8.5-8.5s8.5,3.813,8.5,8.5S114.687,18.5,110,18.5z"/>
		<path fill="#2377C5" d="M110,3c3.86,0,7,3.14,7,7s-3.14,7-7,7s-7-3.14-7-7S106.14,3,110,3 M110,0c-5.522,0-10,4.477-10,10
			s4.478,10,10,10s10-4.477,10-10S115.522,0,110,0L110,0z"/>
	</g>
	<circle fill="#2377C5" cx="110" cy="10" r="3"/>
</g>
<g>
	<path fill="#FFFFFF" d="M2,69c-0.551,0-1-0.449-1-1V52c0-0.551,0.449-1,1-1h16c0.551,0,1,0.449,1,1v16c0,0.551-0.449,1-1,1H2z"/>
	<path fill="#666666" d="M18,52v16H2V52H18 M18,50H2c-1.104,0-2,0.896-2,2v16c0,1.104,0.896,2,2,2h16c1.104,0,2-0.896,2-2V52
		C20,50.896,19.104,50,18,50L18,50z"/>
</g>
<g>
	<path fill="#FFFFFF" d="M52,69c-0.551,0-1-0.449-1-1V52c0-0.551,0.449-1,1-1h16c0.551,0,1,0.449,1,1v16c0,0.551-0.449,1-1,1H52z"/>
	<g>
		<path fill="#2377C5" d="M68,52v16H52V52H68 M68,50H52c-1.104,0-2,0.896-2,2v16c0,1.104,0.896,2,2,2h16c1.104,0,2-0.896,2-2V52
			C70,50.896,69.104,50,68,50L68,50z"/>
	</g>
</g>
<g>
	<g>
		<path fill="#FFFFFF" d="M102,69c-0.551,0-1-0.449-1-1V52c0-0.551,0.449-1,1-1h16c0.551,0,1,0.449,1,1v16c0,0.551-0.449,1-1,1H102z
			"/>
		<g>
			<path fill="#2377C5" d="M118,52v16h-16V52H118 M118,50h-16c-1.104,0-2,0.896-2,2v16c0,1.104,0.896,2,2,2h16c1.104,0,2-0.896,2-2
				V52C120,50.896,119.104,50,118,50L118,50z"/>
		</g>
	</g>
	<path fill-rule="evenodd" clip-rule="evenodd" fill="#FFFFFF" d="M116.405,64.375l-4.023-5.337c0,0,7.078-8.034,7.244-8.2
		s0.425,1.051,0.425,1.051L120,60.433L116.405,64.375z"/>
	<path fill-rule="evenodd" clip-rule="evenodd" fill="#2377C5" d="M124.487,53.677l-13.093,13.13l-7.677-7.675l2.945-2.946
		l4.713,4.715l10.166-10.17L124.487,53.677z"/>
	<path fill-rule="evenodd" clip-rule="evenodd" fill="#2377C5" d="M122.285,66.963"/>
</g>
</svg>
